<svg xmlns="http://www.w3.org/2000/svg" xmlns:xlink="http://www.w3.org/1999/xlink" width="40" zoomAndPan="magnify" viewBox="0 0 30 30.000001" height="40" preserveAspectRatio="xMidYMid meet" version="1.0"><defs><clipPath id="6f4a9f047b"><path d="M 7 3.371094 L 25.152344 3.371094 L 25.152344 26 L 7 26 Z M 7 3.371094 " clip-rule="nonzero"/></clipPath><clipPath id="7e504be490"><path d="M 4.828125 8 L 17 8 L 17 27.320312 L 4.828125 27.320312 Z M 4.828125 8 " clip-rule="nonzero"/></clipPath></defs><g clip-path="url(#6f4a9f047b)"><path fill="#5271ff" d="M 14.976562 3.378906 L 25.152344 9.429688 L 25.152344 21.292969 L 22.222656 22.984375 L 22.222656 12.914062 L 20.832031 13.605469 L 20.832031 23.789062 L 17.902344 25.550781 L 17.902344 13.757812 L 7.761719 7.78125 L 10.765625 5.867188 L 19.328125 11.078125 L 20.683594 10.234375 L 12.191406 5.179688 Z M 14.976562 3.378906 " fill-opacity="1" fill-rule="nonzero"/></g><g clip-path="url(#7e504be490)"><path fill="#000000" d="M 6.332031 8.472656 L 4.828125 9.390625 L 4.828125 16.203125 L 13.546875 21.339844 L 13.546875 22.9375 L 4.828125 17.929688 L 4.828125 21.332031 L 14.972656 27.3125 L 16.457031 26.457031 L 16.457031 19.609375 L 7.761719 14.464844 L 7.761719 12.992188 L 16.457031 17.894531 L 16.457031 14.464844 Z M 6.332031 8.472656 " fill-opacity="1" fill-rule="nonzero"/></g></svg>